<mxfile host="Electron" modified="2024-12-11T07:48:04.677Z" agent="Mozilla/5.0 (Windows NT 10.0; Win64; x64) AppleWebKit/537.36 (KHTML, like Gecko) draw.io/24.1.0 Chrome/120.0.6099.109 Electron/28.1.0 Safari/537.36" etag="pfvf50aIDiA_YVxadNJy" version="24.1.0" type="device">
  <diagram name="第 1 页" id="sMudP33DBJNy-v6ytXJG">
    <mxGraphModel dx="1050" dy="621" grid="1" gridSize="10" guides="1" tooltips="1" connect="1" arrows="1" fold="1" page="1" pageScale="1" pageWidth="3300" pageHeight="4681" math="0" shadow="0">
      <root>
        <mxCell id="0" />
        <mxCell id="1" parent="0" />
        <mxCell id="JvK6t2MEbXTYrqsshKav-27" value="" style="shape=table;startSize=0;container=1;collapsible=0;childLayout=tableLayout;" vertex="1" parent="1">
          <mxGeometry x="41" y="120" width="280" height="280" as="geometry" />
        </mxCell>
        <mxCell id="JvK6t2MEbXTYrqsshKav-28" value="" style="shape=tableRow;horizontal=0;startSize=0;swimlaneHead=0;swimlaneBody=0;strokeColor=inherit;top=0;left=0;bottom=0;right=0;collapsible=0;dropTarget=0;fillColor=none;points=[[0,0.5],[1,0.5]];portConstraint=eastwest;" vertex="1" parent="JvK6t2MEbXTYrqsshKav-27">
          <mxGeometry width="280" height="47" as="geometry" />
        </mxCell>
        <mxCell id="JvK6t2MEbXTYrqsshKav-29" value="1" style="shape=partialRectangle;html=1;whiteSpace=wrap;connectable=0;strokeColor=inherit;overflow=hidden;fillColor=none;top=0;left=0;bottom=0;right=0;pointerEvents=1;" vertex="1" parent="JvK6t2MEbXTYrqsshKav-28">
          <mxGeometry width="47" height="47" as="geometry">
            <mxRectangle width="47" height="47" as="alternateBounds" />
          </mxGeometry>
        </mxCell>
        <mxCell id="JvK6t2MEbXTYrqsshKav-30" value="" style="shape=partialRectangle;html=1;whiteSpace=wrap;connectable=0;strokeColor=inherit;overflow=hidden;fillColor=none;top=0;left=0;bottom=0;right=0;pointerEvents=1;" vertex="1" parent="JvK6t2MEbXTYrqsshKav-28">
          <mxGeometry x="47" width="46" height="47" as="geometry">
            <mxRectangle width="46" height="47" as="alternateBounds" />
          </mxGeometry>
        </mxCell>
        <mxCell id="JvK6t2MEbXTYrqsshKav-31" value="" style="shape=partialRectangle;html=1;whiteSpace=wrap;connectable=0;strokeColor=inherit;overflow=hidden;fillColor=none;top=0;left=0;bottom=0;right=0;pointerEvents=1;" vertex="1" parent="JvK6t2MEbXTYrqsshKav-28">
          <mxGeometry x="93" width="47" height="47" as="geometry">
            <mxRectangle width="47" height="47" as="alternateBounds" />
          </mxGeometry>
        </mxCell>
        <mxCell id="JvK6t2MEbXTYrqsshKav-32" value="" style="shape=partialRectangle;html=1;whiteSpace=wrap;connectable=0;strokeColor=inherit;overflow=hidden;fillColor=none;top=0;left=0;bottom=0;right=0;pointerEvents=1;" vertex="1" parent="JvK6t2MEbXTYrqsshKav-28">
          <mxGeometry x="140" width="47" height="47" as="geometry">
            <mxRectangle width="47" height="47" as="alternateBounds" />
          </mxGeometry>
        </mxCell>
        <mxCell id="JvK6t2MEbXTYrqsshKav-33" value="" style="shape=partialRectangle;html=1;whiteSpace=wrap;connectable=0;strokeColor=inherit;overflow=hidden;fillColor=none;top=0;left=0;bottom=0;right=0;pointerEvents=1;" vertex="1" parent="JvK6t2MEbXTYrqsshKav-28">
          <mxGeometry x="187" width="46" height="47" as="geometry">
            <mxRectangle width="46" height="47" as="alternateBounds" />
          </mxGeometry>
        </mxCell>
        <mxCell id="JvK6t2MEbXTYrqsshKav-34" value="" style="shape=partialRectangle;html=1;whiteSpace=wrap;connectable=0;strokeColor=inherit;overflow=hidden;fillColor=none;top=0;left=0;bottom=0;right=0;pointerEvents=1;" vertex="1" parent="JvK6t2MEbXTYrqsshKav-28">
          <mxGeometry x="233" width="47" height="47" as="geometry">
            <mxRectangle width="47" height="47" as="alternateBounds" />
          </mxGeometry>
        </mxCell>
        <mxCell id="JvK6t2MEbXTYrqsshKav-35" value="" style="shape=tableRow;horizontal=0;startSize=0;swimlaneHead=0;swimlaneBody=0;strokeColor=inherit;top=0;left=0;bottom=0;right=0;collapsible=0;dropTarget=0;fillColor=none;points=[[0,0.5],[1,0.5]];portConstraint=eastwest;" vertex="1" parent="JvK6t2MEbXTYrqsshKav-27">
          <mxGeometry y="47" width="280" height="46" as="geometry" />
        </mxCell>
        <mxCell id="JvK6t2MEbXTYrqsshKav-36" value="" style="shape=partialRectangle;html=1;whiteSpace=wrap;connectable=0;strokeColor=inherit;overflow=hidden;fillColor=none;top=0;left=0;bottom=0;right=0;pointerEvents=1;" vertex="1" parent="JvK6t2MEbXTYrqsshKav-35">
          <mxGeometry width="47" height="46" as="geometry">
            <mxRectangle width="47" height="46" as="alternateBounds" />
          </mxGeometry>
        </mxCell>
        <mxCell id="JvK6t2MEbXTYrqsshKav-37" value="" style="shape=partialRectangle;html=1;whiteSpace=wrap;connectable=0;strokeColor=inherit;overflow=hidden;fillColor=none;top=0;left=0;bottom=0;right=0;pointerEvents=1;" vertex="1" parent="JvK6t2MEbXTYrqsshKav-35">
          <mxGeometry x="47" width="46" height="46" as="geometry">
            <mxRectangle width="46" height="46" as="alternateBounds" />
          </mxGeometry>
        </mxCell>
        <mxCell id="JvK6t2MEbXTYrqsshKav-38" value="" style="shape=partialRectangle;html=1;whiteSpace=wrap;connectable=0;strokeColor=inherit;overflow=hidden;fillColor=none;top=0;left=0;bottom=0;right=0;pointerEvents=1;" vertex="1" parent="JvK6t2MEbXTYrqsshKav-35">
          <mxGeometry x="93" width="47" height="46" as="geometry">
            <mxRectangle width="47" height="46" as="alternateBounds" />
          </mxGeometry>
        </mxCell>
        <mxCell id="JvK6t2MEbXTYrqsshKav-39" value="" style="shape=partialRectangle;html=1;whiteSpace=wrap;connectable=0;strokeColor=inherit;overflow=hidden;fillColor=none;top=0;left=0;bottom=0;right=0;pointerEvents=1;" vertex="1" parent="JvK6t2MEbXTYrqsshKav-35">
          <mxGeometry x="140" width="47" height="46" as="geometry">
            <mxRectangle width="47" height="46" as="alternateBounds" />
          </mxGeometry>
        </mxCell>
        <mxCell id="JvK6t2MEbXTYrqsshKav-40" value="" style="shape=partialRectangle;html=1;whiteSpace=wrap;connectable=0;strokeColor=inherit;overflow=hidden;fillColor=none;top=0;left=0;bottom=0;right=0;pointerEvents=1;" vertex="1" parent="JvK6t2MEbXTYrqsshKav-35">
          <mxGeometry x="187" width="46" height="46" as="geometry">
            <mxRectangle width="46" height="46" as="alternateBounds" />
          </mxGeometry>
        </mxCell>
        <mxCell id="JvK6t2MEbXTYrqsshKav-41" value="" style="shape=partialRectangle;html=1;whiteSpace=wrap;connectable=0;strokeColor=inherit;overflow=hidden;fillColor=none;top=0;left=0;bottom=0;right=0;pointerEvents=1;" vertex="1" parent="JvK6t2MEbXTYrqsshKav-35">
          <mxGeometry x="233" width="47" height="46" as="geometry">
            <mxRectangle width="47" height="46" as="alternateBounds" />
          </mxGeometry>
        </mxCell>
        <mxCell id="JvK6t2MEbXTYrqsshKav-42" value="" style="shape=tableRow;horizontal=0;startSize=0;swimlaneHead=0;swimlaneBody=0;strokeColor=inherit;top=0;left=0;bottom=0;right=0;collapsible=0;dropTarget=0;fillColor=none;points=[[0,0.5],[1,0.5]];portConstraint=eastwest;" vertex="1" parent="JvK6t2MEbXTYrqsshKav-27">
          <mxGeometry y="93" width="280" height="47" as="geometry" />
        </mxCell>
        <mxCell id="JvK6t2MEbXTYrqsshKav-43" value="" style="shape=partialRectangle;html=1;whiteSpace=wrap;connectable=0;strokeColor=inherit;overflow=hidden;fillColor=none;top=0;left=0;bottom=0;right=0;pointerEvents=1;" vertex="1" parent="JvK6t2MEbXTYrqsshKav-42">
          <mxGeometry width="47" height="47" as="geometry">
            <mxRectangle width="47" height="47" as="alternateBounds" />
          </mxGeometry>
        </mxCell>
        <mxCell id="JvK6t2MEbXTYrqsshKav-44" value="" style="shape=partialRectangle;html=1;whiteSpace=wrap;connectable=0;strokeColor=inherit;overflow=hidden;fillColor=none;top=0;left=0;bottom=0;right=0;pointerEvents=1;" vertex="1" parent="JvK6t2MEbXTYrqsshKav-42">
          <mxGeometry x="47" width="46" height="47" as="geometry">
            <mxRectangle width="46" height="47" as="alternateBounds" />
          </mxGeometry>
        </mxCell>
        <mxCell id="JvK6t2MEbXTYrqsshKav-45" value="" style="shape=partialRectangle;html=1;whiteSpace=wrap;connectable=0;strokeColor=inherit;overflow=hidden;fillColor=none;top=0;left=0;bottom=0;right=0;pointerEvents=1;" vertex="1" parent="JvK6t2MEbXTYrqsshKav-42">
          <mxGeometry x="93" width="47" height="47" as="geometry">
            <mxRectangle width="47" height="47" as="alternateBounds" />
          </mxGeometry>
        </mxCell>
        <mxCell id="JvK6t2MEbXTYrqsshKav-46" value="" style="shape=partialRectangle;html=1;whiteSpace=wrap;connectable=0;strokeColor=inherit;overflow=hidden;fillColor=none;top=0;left=0;bottom=0;right=0;pointerEvents=1;" vertex="1" parent="JvK6t2MEbXTYrqsshKav-42">
          <mxGeometry x="140" width="47" height="47" as="geometry">
            <mxRectangle width="47" height="47" as="alternateBounds" />
          </mxGeometry>
        </mxCell>
        <mxCell id="JvK6t2MEbXTYrqsshKav-47" value="" style="shape=partialRectangle;html=1;whiteSpace=wrap;connectable=0;strokeColor=inherit;overflow=hidden;fillColor=none;top=0;left=0;bottom=0;right=0;pointerEvents=1;" vertex="1" parent="JvK6t2MEbXTYrqsshKav-42">
          <mxGeometry x="187" width="46" height="47" as="geometry">
            <mxRectangle width="46" height="47" as="alternateBounds" />
          </mxGeometry>
        </mxCell>
        <mxCell id="JvK6t2MEbXTYrqsshKav-48" value="" style="shape=partialRectangle;html=1;whiteSpace=wrap;connectable=0;strokeColor=inherit;overflow=hidden;fillColor=none;top=0;left=0;bottom=0;right=0;pointerEvents=1;" vertex="1" parent="JvK6t2MEbXTYrqsshKav-42">
          <mxGeometry x="233" width="47" height="47" as="geometry">
            <mxRectangle width="47" height="47" as="alternateBounds" />
          </mxGeometry>
        </mxCell>
        <mxCell id="JvK6t2MEbXTYrqsshKav-49" value="" style="shape=tableRow;horizontal=0;startSize=0;swimlaneHead=0;swimlaneBody=0;strokeColor=inherit;top=0;left=0;bottom=0;right=0;collapsible=0;dropTarget=0;fillColor=none;points=[[0,0.5],[1,0.5]];portConstraint=eastwest;" vertex="1" parent="JvK6t2MEbXTYrqsshKav-27">
          <mxGeometry y="140" width="280" height="47" as="geometry" />
        </mxCell>
        <mxCell id="JvK6t2MEbXTYrqsshKav-50" value="" style="shape=partialRectangle;html=1;whiteSpace=wrap;connectable=0;strokeColor=inherit;overflow=hidden;fillColor=none;top=0;left=0;bottom=0;right=0;pointerEvents=1;" vertex="1" parent="JvK6t2MEbXTYrqsshKav-49">
          <mxGeometry width="47" height="47" as="geometry">
            <mxRectangle width="47" height="47" as="alternateBounds" />
          </mxGeometry>
        </mxCell>
        <mxCell id="JvK6t2MEbXTYrqsshKav-51" value="" style="shape=partialRectangle;html=1;whiteSpace=wrap;connectable=0;strokeColor=inherit;overflow=hidden;fillColor=none;top=0;left=0;bottom=0;right=0;pointerEvents=1;" vertex="1" parent="JvK6t2MEbXTYrqsshKav-49">
          <mxGeometry x="47" width="46" height="47" as="geometry">
            <mxRectangle width="46" height="47" as="alternateBounds" />
          </mxGeometry>
        </mxCell>
        <mxCell id="JvK6t2MEbXTYrqsshKav-52" value="" style="shape=partialRectangle;html=1;whiteSpace=wrap;connectable=0;strokeColor=inherit;overflow=hidden;fillColor=none;top=0;left=0;bottom=0;right=0;pointerEvents=1;" vertex="1" parent="JvK6t2MEbXTYrqsshKav-49">
          <mxGeometry x="93" width="47" height="47" as="geometry">
            <mxRectangle width="47" height="47" as="alternateBounds" />
          </mxGeometry>
        </mxCell>
        <mxCell id="JvK6t2MEbXTYrqsshKav-53" value="" style="shape=partialRectangle;html=1;whiteSpace=wrap;connectable=0;strokeColor=inherit;overflow=hidden;fillColor=none;top=0;left=0;bottom=0;right=0;pointerEvents=1;" vertex="1" parent="JvK6t2MEbXTYrqsshKav-49">
          <mxGeometry x="140" width="47" height="47" as="geometry">
            <mxRectangle width="47" height="47" as="alternateBounds" />
          </mxGeometry>
        </mxCell>
        <mxCell id="JvK6t2MEbXTYrqsshKav-54" value="" style="shape=partialRectangle;html=1;whiteSpace=wrap;connectable=0;strokeColor=inherit;overflow=hidden;fillColor=none;top=0;left=0;bottom=0;right=0;pointerEvents=1;" vertex="1" parent="JvK6t2MEbXTYrqsshKav-49">
          <mxGeometry x="187" width="46" height="47" as="geometry">
            <mxRectangle width="46" height="47" as="alternateBounds" />
          </mxGeometry>
        </mxCell>
        <mxCell id="JvK6t2MEbXTYrqsshKav-55" value="" style="shape=partialRectangle;html=1;whiteSpace=wrap;connectable=0;strokeColor=inherit;overflow=hidden;fillColor=none;top=0;left=0;bottom=0;right=0;pointerEvents=1;" vertex="1" parent="JvK6t2MEbXTYrqsshKav-49">
          <mxGeometry x="233" width="47" height="47" as="geometry">
            <mxRectangle width="47" height="47" as="alternateBounds" />
          </mxGeometry>
        </mxCell>
        <mxCell id="JvK6t2MEbXTYrqsshKav-56" value="" style="shape=tableRow;horizontal=0;startSize=0;swimlaneHead=0;swimlaneBody=0;strokeColor=inherit;top=0;left=0;bottom=0;right=0;collapsible=0;dropTarget=0;fillColor=none;points=[[0,0.5],[1,0.5]];portConstraint=eastwest;" vertex="1" parent="JvK6t2MEbXTYrqsshKav-27">
          <mxGeometry y="187" width="280" height="46" as="geometry" />
        </mxCell>
        <mxCell id="JvK6t2MEbXTYrqsshKav-57" value="" style="shape=partialRectangle;html=1;whiteSpace=wrap;connectable=0;strokeColor=inherit;overflow=hidden;fillColor=none;top=0;left=0;bottom=0;right=0;pointerEvents=1;" vertex="1" parent="JvK6t2MEbXTYrqsshKav-56">
          <mxGeometry width="47" height="46" as="geometry">
            <mxRectangle width="47" height="46" as="alternateBounds" />
          </mxGeometry>
        </mxCell>
        <mxCell id="JvK6t2MEbXTYrqsshKav-58" value="" style="shape=partialRectangle;html=1;whiteSpace=wrap;connectable=0;strokeColor=inherit;overflow=hidden;fillColor=none;top=0;left=0;bottom=0;right=0;pointerEvents=1;" vertex="1" parent="JvK6t2MEbXTYrqsshKav-56">
          <mxGeometry x="47" width="46" height="46" as="geometry">
            <mxRectangle width="46" height="46" as="alternateBounds" />
          </mxGeometry>
        </mxCell>
        <mxCell id="JvK6t2MEbXTYrqsshKav-59" value="" style="shape=partialRectangle;html=1;whiteSpace=wrap;connectable=0;strokeColor=inherit;overflow=hidden;fillColor=none;top=0;left=0;bottom=0;right=0;pointerEvents=1;" vertex="1" parent="JvK6t2MEbXTYrqsshKav-56">
          <mxGeometry x="93" width="47" height="46" as="geometry">
            <mxRectangle width="47" height="46" as="alternateBounds" />
          </mxGeometry>
        </mxCell>
        <mxCell id="JvK6t2MEbXTYrqsshKav-60" value="" style="shape=partialRectangle;html=1;whiteSpace=wrap;connectable=0;strokeColor=inherit;overflow=hidden;fillColor=none;top=0;left=0;bottom=0;right=0;pointerEvents=1;" vertex="1" parent="JvK6t2MEbXTYrqsshKav-56">
          <mxGeometry x="140" width="47" height="46" as="geometry">
            <mxRectangle width="47" height="46" as="alternateBounds" />
          </mxGeometry>
        </mxCell>
        <mxCell id="JvK6t2MEbXTYrqsshKav-61" value="" style="shape=partialRectangle;html=1;whiteSpace=wrap;connectable=0;strokeColor=inherit;overflow=hidden;fillColor=none;top=0;left=0;bottom=0;right=0;pointerEvents=1;" vertex="1" parent="JvK6t2MEbXTYrqsshKav-56">
          <mxGeometry x="187" width="46" height="46" as="geometry">
            <mxRectangle width="46" height="46" as="alternateBounds" />
          </mxGeometry>
        </mxCell>
        <mxCell id="JvK6t2MEbXTYrqsshKav-62" value="" style="shape=partialRectangle;html=1;whiteSpace=wrap;connectable=0;strokeColor=inherit;overflow=hidden;fillColor=none;top=0;left=0;bottom=0;right=0;pointerEvents=1;" vertex="1" parent="JvK6t2MEbXTYrqsshKav-56">
          <mxGeometry x="233" width="47" height="46" as="geometry">
            <mxRectangle width="47" height="46" as="alternateBounds" />
          </mxGeometry>
        </mxCell>
        <mxCell id="JvK6t2MEbXTYrqsshKav-63" value="" style="shape=tableRow;horizontal=0;startSize=0;swimlaneHead=0;swimlaneBody=0;strokeColor=inherit;top=0;left=0;bottom=0;right=0;collapsible=0;dropTarget=0;fillColor=none;points=[[0,0.5],[1,0.5]];portConstraint=eastwest;" vertex="1" parent="JvK6t2MEbXTYrqsshKav-27">
          <mxGeometry y="233" width="280" height="47" as="geometry" />
        </mxCell>
        <mxCell id="JvK6t2MEbXTYrqsshKav-64" value="" style="shape=partialRectangle;html=1;whiteSpace=wrap;connectable=0;strokeColor=inherit;overflow=hidden;fillColor=none;top=0;left=0;bottom=0;right=0;pointerEvents=1;" vertex="1" parent="JvK6t2MEbXTYrqsshKav-63">
          <mxGeometry width="47" height="47" as="geometry">
            <mxRectangle width="47" height="47" as="alternateBounds" />
          </mxGeometry>
        </mxCell>
        <mxCell id="JvK6t2MEbXTYrqsshKav-65" value="" style="shape=partialRectangle;html=1;whiteSpace=wrap;connectable=0;strokeColor=inherit;overflow=hidden;fillColor=none;top=0;left=0;bottom=0;right=0;pointerEvents=1;" vertex="1" parent="JvK6t2MEbXTYrqsshKav-63">
          <mxGeometry x="47" width="46" height="47" as="geometry">
            <mxRectangle width="46" height="47" as="alternateBounds" />
          </mxGeometry>
        </mxCell>
        <mxCell id="JvK6t2MEbXTYrqsshKav-66" value="" style="shape=partialRectangle;html=1;whiteSpace=wrap;connectable=0;strokeColor=inherit;overflow=hidden;fillColor=none;top=0;left=0;bottom=0;right=0;pointerEvents=1;" vertex="1" parent="JvK6t2MEbXTYrqsshKav-63">
          <mxGeometry x="93" width="47" height="47" as="geometry">
            <mxRectangle width="47" height="47" as="alternateBounds" />
          </mxGeometry>
        </mxCell>
        <mxCell id="JvK6t2MEbXTYrqsshKav-67" value="" style="shape=partialRectangle;html=1;whiteSpace=wrap;connectable=0;strokeColor=inherit;overflow=hidden;fillColor=none;top=0;left=0;bottom=0;right=0;pointerEvents=1;" vertex="1" parent="JvK6t2MEbXTYrqsshKav-63">
          <mxGeometry x="140" width="47" height="47" as="geometry">
            <mxRectangle width="47" height="47" as="alternateBounds" />
          </mxGeometry>
        </mxCell>
        <mxCell id="JvK6t2MEbXTYrqsshKav-68" value="" style="shape=partialRectangle;html=1;whiteSpace=wrap;connectable=0;strokeColor=inherit;overflow=hidden;fillColor=none;top=0;left=0;bottom=0;right=0;pointerEvents=1;" vertex="1" parent="JvK6t2MEbXTYrqsshKav-63">
          <mxGeometry x="187" width="46" height="47" as="geometry">
            <mxRectangle width="46" height="47" as="alternateBounds" />
          </mxGeometry>
        </mxCell>
        <mxCell id="JvK6t2MEbXTYrqsshKav-69" value="" style="shape=partialRectangle;html=1;whiteSpace=wrap;connectable=0;strokeColor=inherit;overflow=hidden;fillColor=none;top=0;left=0;bottom=0;right=0;pointerEvents=1;" vertex="1" parent="JvK6t2MEbXTYrqsshKav-63">
          <mxGeometry x="233" width="47" height="47" as="geometry">
            <mxRectangle width="47" height="47" as="alternateBounds" />
          </mxGeometry>
        </mxCell>
        <mxCell id="JvK6t2MEbXTYrqsshKav-85" value="" style="shape=table;startSize=0;container=1;collapsible=0;childLayout=tableLayout;" vertex="1" parent="1">
          <mxGeometry x="400" y="240" width="80" height="80" as="geometry" />
        </mxCell>
        <mxCell id="JvK6t2MEbXTYrqsshKav-86" value="" style="shape=tableRow;horizontal=0;startSize=0;swimlaneHead=0;swimlaneBody=0;strokeColor=inherit;top=0;left=0;bottom=0;right=0;collapsible=0;dropTarget=0;fillColor=none;points=[[0,0.5],[1,0.5]];portConstraint=eastwest;" vertex="1" parent="JvK6t2MEbXTYrqsshKav-85">
          <mxGeometry width="80" height="40" as="geometry" />
        </mxCell>
        <mxCell id="JvK6t2MEbXTYrqsshKav-87" value="" style="shape=partialRectangle;html=1;whiteSpace=wrap;connectable=0;strokeColor=inherit;overflow=hidden;fillColor=none;top=0;left=0;bottom=0;right=0;pointerEvents=1;" vertex="1" parent="JvK6t2MEbXTYrqsshKav-86">
          <mxGeometry width="40" height="40" as="geometry">
            <mxRectangle width="40" height="40" as="alternateBounds" />
          </mxGeometry>
        </mxCell>
        <mxCell id="JvK6t2MEbXTYrqsshKav-88" value="" style="shape=partialRectangle;html=1;whiteSpace=wrap;connectable=0;strokeColor=inherit;overflow=hidden;fillColor=none;top=0;left=0;bottom=0;right=0;pointerEvents=1;" vertex="1" parent="JvK6t2MEbXTYrqsshKav-86">
          <mxGeometry x="40" width="40" height="40" as="geometry">
            <mxRectangle width="40" height="40" as="alternateBounds" />
          </mxGeometry>
        </mxCell>
        <mxCell id="JvK6t2MEbXTYrqsshKav-89" value="" style="shape=tableRow;horizontal=0;startSize=0;swimlaneHead=0;swimlaneBody=0;strokeColor=inherit;top=0;left=0;bottom=0;right=0;collapsible=0;dropTarget=0;fillColor=none;points=[[0,0.5],[1,0.5]];portConstraint=eastwest;" vertex="1" parent="JvK6t2MEbXTYrqsshKav-85">
          <mxGeometry y="40" width="80" height="40" as="geometry" />
        </mxCell>
        <mxCell id="JvK6t2MEbXTYrqsshKav-90" value="" style="shape=partialRectangle;html=1;whiteSpace=wrap;connectable=0;strokeColor=inherit;overflow=hidden;fillColor=none;top=0;left=0;bottom=0;right=0;pointerEvents=1;" vertex="1" parent="JvK6t2MEbXTYrqsshKav-89">
          <mxGeometry width="40" height="40" as="geometry">
            <mxRectangle width="40" height="40" as="alternateBounds" />
          </mxGeometry>
        </mxCell>
        <mxCell id="JvK6t2MEbXTYrqsshKav-91" value="" style="shape=partialRectangle;html=1;whiteSpace=wrap;connectable=0;strokeColor=inherit;overflow=hidden;fillColor=none;top=0;left=0;bottom=0;right=0;pointerEvents=1;" vertex="1" parent="JvK6t2MEbXTYrqsshKav-89">
          <mxGeometry x="40" width="40" height="40" as="geometry">
            <mxRectangle width="40" height="40" as="alternateBounds" />
          </mxGeometry>
        </mxCell>
      </root>
    </mxGraphModel>
  </diagram>
</mxfile>
